<?xml version="1.0" standalone="no"?>
<!DOCTYPE svg PUBLIC "-//W3C//DTD SVG 20010904//EN"
 "http://www.w3.org/TR/2001/REC-SVG-20010904/DTD/svg10.dtd">
<svg version="1.0" xmlns="http://www.w3.org/2000/svg"
 width="651.000000pt" height="651.000000pt" viewBox="0 0 651.000000 651.000000"
 preserveAspectRatio="xMidYMid meet">
<metadata>
Created by potrace 1.14, written by Peter Selinger 2001-2017
</metadata>
<g transform="translate(0.000000,651.000000) scale(0.100000,-0.100000)"
fill="#000000" stroke="none">
<path d="M4880 6491 c-53 -17 -140 -69 -665 -393 -137 -85 -322 -198 -410
-252 -88 -54 -172 -107 -187 -117 -15 -10 -30 -19 -33 -19 -3 0 -18 -9 -33
-19 -85 -61 -931 -571 -945 -571 -15 0 -4 26 48 117 114 197 120 301 23 375
-93 70 -248 65 -453 -15 -63 -25 -294 -144 -370 -191 -527 -324 -912 -814
-1105 -1407 -49 -150 -100 -379 -116 -522 -9 -83 -11 -443 -3 -517 11 -103 20
-169 25 -194 2 -12 7 -37 10 -56 8 -48 63 -269 74 -300 5 -14 23 -65 41 -115
40 -113 68 -176 126 -290 26 -49 51 -100 57 -112 6 -13 14 -23 19 -23 4 0 7
-5 7 -10 0 -12 106 -173 154 -235 78 -100 133 -163 234 -266 l84 -86 -30 -54
c-29 -54 -86 -161 -214 -404 -38 -71 -95 -182 -126 -245 -57 -114 -57 -114
-57 -205 0 -75 4 -97 23 -133 30 -55 95 -128 146 -159 92 -59 246 -87 347 -63
63 14 188 72 274 127 33 21 69 43 80 50 11 6 157 97 325 201 168 104 406 251
530 326 124 76 241 148 260 161 92 60 242 146 247 142 2 -3 -5 -27 -16 -52
-43 -97 -20 -211 55 -274 79 -65 206 -79 401 -45 484 84 901 269 1238 550 315
261 538 553 705 922 119 262 201 562 227 830 10 98 9 440 -1 512 -9 69 -43
267 -51 298 -3 12 -7 30 -9 40 -35 154 -120 381 -207 555 -127 251 -294 480
-503 686 -58 58 -106 110 -106 116 0 7 31 68 68 136 127 229 285 523 341 634
55 108 56 112 56 195 0 74 -4 92 -29 142 -52 103 -175 200 -294 230 -72 18
-203 18 -262 -1z m-1475 -1807 c-58 -113 -108 -211 -112 -217 -4 -7 -8 -14 -8
-17 -1 -3 -24 -50 -52 -105 -29 -55 -99 -192 -156 -305 -58 -113 -122 -225
-143 -249 -78 -91 -218 -121 -332 -71 -68 30 -144 112 -167 181 -42 124 -17
249 68 345 26 30 227 174 243 174 2 0 50 30 106 67 57 36 128 82 158 101 30
19 69 43 85 54 17 10 111 70 210 133 99 62 186 114 193 114 7 1 -33 -89 -93
-205z m550 -1808 c216 -98 256 -374 79 -543 -42 -40 -158 -115 -729 -470 -38
-24 -116 -73 -173 -109 -56 -36 -107 -62 -112 -59 -6 4 21 65 61 143 142 271
200 382 294 557 18 33 61 114 95 180 105 200 149 259 222 296 82 42 179 43
263 5z"/>
</g>
</svg>
